<svg xmlns="http://www.w3.org/2000/svg" viewBox="0 0 1000 1000"><defs><style>.cls-1{fill:#fff;}.cls-2{fill:#676c72;}.cls-3{fill:#ea4335;}.cls-4{fill:#4285f4;}.cls-5{fill:#fbbc04;}.cls-6{fill:#0f9d58;}</style></defs><title>DSC Social Profile Logo</title><g id="Circle"><circle class="cls-1" cx="500" cy="500" r="500"/></g><g id="Logo"><path class="cls-2" d="M88.07,569.62H104.2a29.13,29.13,0,0,1,14.34,3.4,23.39,23.39,0,0,1,9.41,9.45,31.05,31.05,0,0,1,0,27.78,23.37,23.37,0,0,1-9.41,9.44,29,29,0,0,1-14.34,3.4H88.07ZM104.2,617q9.48,0,15-5.45t5.56-15.23q0-9.78-5.56-15.24t-15-5.45H94.34V617Z"/><path class="cls-2" d="M145.34,621.67a18.05,18.05,0,0,1-6.75-7.21,21.74,21.74,0,0,1-2.43-10.34A22.64,22.64,0,0,1,138.44,594a18.41,18.41,0,0,1,6.46-7.4,17.18,17.18,0,0,1,9.7-2.76,18.37,18.37,0,0,1,9.71,2.5,16.6,16.6,0,0,1,6.31,6.91,22.24,22.24,0,0,1,2.2,10.08,7.4,7.4,0,0,1-.22,1.94H142.51a15,15,0,0,0,2.09,7.32,12.1,12.1,0,0,0,4.74,4.48,12.79,12.79,0,0,0,6,1.49q7.32,0,11.28-6.87l5.37,2.62a19.28,19.28,0,0,1-6.68,7.32,20.19,20.19,0,0,1-20,.07ZM166.1,600a12.43,12.43,0,0,0-1.34-4.78,10.22,10.22,0,0,0-3.77-4,11.85,11.85,0,0,0-6.46-1.64,10.71,10.71,0,0,0-7.58,2.88,13.79,13.79,0,0,0-4.07,7.58Z"/><path class="cls-2" d="M175.29,585h6.79l11.8,30.61H194L206,585h6.64l-15.53,38.08h-6.42Z"/><path class="cls-2" d="M223.9,621.67a18.08,18.08,0,0,1-6.76-7.21,21.74,21.74,0,0,1-2.43-10.34A22.64,22.64,0,0,1,217,594a18.48,18.48,0,0,1,6.46-7.4,17.22,17.22,0,0,1,9.71-2.76,18.39,18.39,0,0,1,9.71,2.5,16.67,16.67,0,0,1,6.31,6.91,22.37,22.37,0,0,1,2.2,10.08,7.37,7.37,0,0,1-.23,1.94H221.06a15.11,15.11,0,0,0,2.09,7.32,12.23,12.23,0,0,0,4.74,4.48,12.82,12.82,0,0,0,6,1.49q7.32,0,11.28-6.87l5.38,2.62a19.3,19.3,0,0,1-6.69,7.32,20.17,20.17,0,0,1-20,.07ZM244.66,600a12.28,12.28,0,0,0-1.35-4.78,10.15,10.15,0,0,0-3.77-4,11.82,11.82,0,0,0-6.46-1.64,10.74,10.74,0,0,0-7.58,2.88,13.85,13.85,0,0,0-4.07,7.58Z"/><path class="cls-2" d="M258.77,569.62h6.35v53.47h-6.35Z"/><path class="cls-2" d="M281.62,621.6a18.89,18.89,0,0,1-7-7.32,22.18,22.18,0,0,1,0-20.46,18.76,18.76,0,0,1,7-7.32,20.23,20.23,0,0,1,20.16,0,18.69,18.69,0,0,1,7,7.32,22.1,22.1,0,0,1,0,20.46,18.82,18.82,0,0,1-7,7.32,20.3,20.3,0,0,1-20.16,0Zm16.62-4.82a13,13,0,0,0,4.85-5,17.07,17.07,0,0,0,0-15.38,13,13,0,0,0-4.85-5,12.83,12.83,0,0,0-6.54-1.76,13,13,0,0,0-11.46,6.8,17.07,17.07,0,0,0,0,15.38,13.08,13.08,0,0,0,18,5Z"/><path class="cls-2" d="M318,585h6v5.67h.3a13.8,13.8,0,0,1,5.19-4.89,15.5,15.5,0,0,1,7.81-2,17.16,17.16,0,0,1,9.26,2.61,18.31,18.31,0,0,1,6.57,7.25,23.8,23.8,0,0,1,0,20.79,18.27,18.27,0,0,1-6.57,7.21,17.16,17.16,0,0,1-9.26,2.61,15.5,15.5,0,0,1-7.81-2,14,14,0,0,1-5.19-4.81H324l.3,5.23v16.5H318Zm24.79,31.73a12.92,12.92,0,0,0,4.66-5.11,17.2,17.2,0,0,0,0-15.16,13,13,0,0,0-4.66-5.12,11.63,11.63,0,0,0-12.4,0,12.82,12.82,0,0,0-4.63,5.08,17.72,17.72,0,0,0,0,15.23,12.69,12.69,0,0,0,4.63,5.08,11.63,11.63,0,0,0,12.4,0Z"/><path class="cls-2" d="M370.11,621.67a18.08,18.08,0,0,1-6.76-7.21,21.74,21.74,0,0,1-2.43-10.34A22.64,22.64,0,0,1,363.2,594a18.48,18.48,0,0,1,6.46-7.4,17.22,17.22,0,0,1,9.71-2.76,18.33,18.33,0,0,1,9.7,2.5,16.54,16.54,0,0,1,6.31,6.91,22.24,22.24,0,0,1,2.21,10.08,7.37,7.37,0,0,1-.23,1.94H367.27a15.11,15.11,0,0,0,2.09,7.32A12.16,12.16,0,0,0,374.1,617a12.82,12.82,0,0,0,6,1.49q7.32,0,11.28-6.87l5.38,2.62a19.38,19.38,0,0,1-6.69,7.32,20.17,20.17,0,0,1-20,.07ZM390.87,600a12.28,12.28,0,0,0-1.35-4.78,10.15,10.15,0,0,0-3.77-4,11.85,11.85,0,0,0-6.46-1.64,10.74,10.74,0,0,0-7.58,2.88,13.85,13.85,0,0,0-4.07,7.58Z"/><path class="cls-2" d="M405,585h6v6.12h.3a10.39,10.39,0,0,1,4.33-5.23,12.16,12.16,0,0,1,6.72-2.09,11.24,11.24,0,0,1,4.48.82v6.8a11.85,11.85,0,0,0-5.38-1.2,8.93,8.93,0,0,0-5.08,1.57,11.34,11.34,0,0,0-3.69,4.23,12.24,12.24,0,0,0-1.38,5.73v21.33H405Z"/><path class="cls-2" d="M452.77,620.48a19.15,19.15,0,0,1-7.17-10.68l6-2.47a15.52,15.52,0,0,0,4.7,7.84,11.71,11.71,0,0,0,8.07,3.07,12.37,12.37,0,0,0,7.84-2.51,8.18,8.18,0,0,0,3.21-6.83,7.88,7.88,0,0,0-2.73-6.16q-2.72-2.43-8.92-4.52L460.46,597a26.92,26.92,0,0,1-9.26-5.3q-3.58-3.29-3.58-9.11a12.76,12.76,0,0,1,2.09-7.06,14.92,14.92,0,0,1,5.82-5.19,19.37,19.37,0,0,1,16.43-.22,16.63,16.63,0,0,1,5.49,4.18,15.63,15.63,0,0,1,2.87,4.85l-6,2.54a10,10,0,0,0-3.4-5,10.41,10.41,0,0,0-7-2.24,10.94,10.94,0,0,0-7,2.31,7.17,7.17,0,0,0-2.91,5.83,6.26,6.26,0,0,0,2.46,5.11,25.41,25.41,0,0,0,7.47,3.7l3.51,1.19a29.6,29.6,0,0,1,10.6,6.16q3.81,3.71,3.81,10.05a13.94,13.94,0,0,1-2.65,8.66,15.57,15.57,0,0,1-6.68,5.15,21.69,21.69,0,0,1-8.29,1.64A19.14,19.14,0,0,1,452.77,620.48Z"/><path class="cls-2" d="M498.43,623.52a9.62,9.62,0,0,1-3.32-2,9.24,9.24,0,0,1-2.24-3.34,12.71,12.71,0,0,1-.75-4.64V590.76h-6.64V585h6.64V574.25h6.35V585h9.26v5.75h-9.26V612a7.72,7.72,0,0,0,1.19,4.74,5.08,5.08,0,0,0,4.11,1.67,7.78,7.78,0,0,0,4.18-1.26v6.19a9.67,9.67,0,0,1-2.28.75,15.92,15.92,0,0,1-2.95.22A11.8,11.8,0,0,1,498.43,623.52Z"/><path class="cls-2" d="M518.74,620.25q-3.62-4-3.62-11.27V585h6.35v23q0,5.44,2.46,8a8.81,8.81,0,0,0,6.65,2.54,9.88,9.88,0,0,0,5.71-1.71,11.68,11.68,0,0,0,3.88-4.48,12.92,12.92,0,0,0,1.38-5.83V585h6.35v38.08h-6v-5.53h-.3a12.44,12.44,0,0,1-5,4.78,14.58,14.58,0,0,1-7.32,1.94Q522.36,624.28,518.74,620.25Z"/><path class="cls-2" d="M563.84,621.67a18.25,18.25,0,0,1-6.53-7.21,23.8,23.8,0,0,1,0-20.79,18.29,18.29,0,0,1,6.53-7.25,17,17,0,0,1,9.23-2.61,15.43,15.43,0,0,1,7.84,2,14.36,14.36,0,0,1,5.22,4.89h.3l-.3-5.3V569.62h6.35v53.47h-6.05v-5.6h-.3a14.52,14.52,0,0,1-5.22,4.81,15.43,15.43,0,0,1-7.84,2A17,17,0,0,1,563.84,621.67Zm16.21-4.93a13.05,13.05,0,0,0,4.63-5.08,17.44,17.44,0,0,0,0-15.23,13.19,13.19,0,0,0-4.63-5.08,11.7,11.7,0,0,0-12.44,0,13,13,0,0,0-4.66,5.12,17.2,17.2,0,0,0,0,15.16,12.92,12.92,0,0,0,4.66,5.11,11.7,11.7,0,0,0,12.44,0Z"/><path class="cls-2" d="M608.68,621.67a18.05,18.05,0,0,1-6.75-7.21,21.74,21.74,0,0,1-2.43-10.34A22.64,22.64,0,0,1,601.78,594a18.48,18.48,0,0,1,6.46-7.4,17.18,17.18,0,0,1,9.7-2.76,18.37,18.37,0,0,1,9.71,2.5,16.6,16.6,0,0,1,6.31,6.91,22.24,22.24,0,0,1,2.2,10.08,7.4,7.4,0,0,1-.22,1.94H605.85a15,15,0,0,0,2.09,7.32,12.1,12.1,0,0,0,4.74,4.48,12.82,12.82,0,0,0,6,1.49q7.32,0,11.28-6.87l5.37,2.62a19.28,19.28,0,0,1-6.68,7.32,20.19,20.19,0,0,1-20,.07ZM629.44,600a12.26,12.26,0,0,0-1.34-4.78,10.22,10.22,0,0,0-3.77-4,11.85,11.85,0,0,0-6.46-1.64,10.73,10.73,0,0,0-7.58,2.88,13.79,13.79,0,0,0-4.07,7.58Z"/><path class="cls-2" d="M643.56,585h6v5.6h.3a12.88,12.88,0,0,1,5-4.82,14.42,14.42,0,0,1,7.31-2q6.87,0,10.5,4t3.62,10.86v24.42H670V599.64c0-3.53-.85-6.1-2.54-7.69a9.74,9.74,0,0,0-6.94-2.39,9.23,9.23,0,0,0-5.49,1.72,11.42,11.42,0,0,0-3.77,4.52,13.31,13.31,0,0,0-1.35,5.86v21.43h-6.34Z"/><path class="cls-2" d="M693.92,623.52a9.72,9.72,0,0,1-3.32-2,9.37,9.37,0,0,1-2.24-3.34,12.71,12.71,0,0,1-.75-4.64V590.76H681V585h6.64V574.25H694V585h9.26v5.75H694V612a7.72,7.72,0,0,0,1.19,4.74,5.08,5.08,0,0,0,4.11,1.67,7.75,7.75,0,0,0,4.18-1.26v6.19a9.59,9.59,0,0,1-2.27.75,16.07,16.07,0,0,1-2.95.22A11.82,11.82,0,0,1,693.92,623.52Z"/><path class="cls-2" d="M739,620.62a26.34,26.34,0,0,1-10-10,29.76,29.76,0,0,1,0-28.45,26.41,26.41,0,0,1,10-10,27.72,27.72,0,0,1,14.11-3.66A25.91,25.91,0,0,1,764,570.71a25.47,25.47,0,0,1,8.63,6.46l-4.56,4.4a20,20,0,0,0-6.68-5.38,19.31,19.31,0,0,0-8.33-1.71,21.53,21.53,0,0,0-10.68,2.72,20.38,20.38,0,0,0-7.73,7.69,24.34,24.34,0,0,0,0,22.93,20.38,20.38,0,0,0,7.73,7.69,21.43,21.43,0,0,0,10.68,2.73q9.71,0,16.5-8l4.63,4.48a27.12,27.12,0,0,1-9.18,7A29,29,0,0,1,739,620.62Z"/><path class="cls-2" d="M781.33,569.62h6.34v53.47h-6.34Z"/><path class="cls-2" d="M800.41,620.25q-3.63-4-3.63-11.27V585h6.35v23q0,5.44,2.47,8a8.79,8.79,0,0,0,6.64,2.54,9.86,9.86,0,0,0,5.71-1.71,11.71,11.71,0,0,0,3.89-4.48,12.92,12.92,0,0,0,1.38-5.83V585h6.35v38.08h-6.05v-5.53h-.3a12.57,12.57,0,0,1-5,4.78,14.58,14.58,0,0,1-7.32,1.94Q804,624.28,800.41,620.25Z"/><path class="cls-2" d="M850.51,622.3a14,14,0,0,1-5.19-4.81H845v5.6h-6V569.62h6.35v15.76l-.3,5.3h.3a13.8,13.8,0,0,1,5.19-4.89,15.49,15.49,0,0,1,7.8-2,17.13,17.13,0,0,1,9.26,2.61,18.17,18.17,0,0,1,6.57,7.25,23.8,23.8,0,0,1,0,20.79,18.12,18.12,0,0,1-6.57,7.21,17.13,17.13,0,0,1-9.26,2.61A15.49,15.49,0,0,1,850.51,622.3Zm13.26-5.56a12.92,12.92,0,0,0,4.66-5.11,17.2,17.2,0,0,0,0-15.16,13,13,0,0,0-4.66-5.12,11.63,11.63,0,0,0-12.4,0,12.75,12.75,0,0,0-4.63,5.08,17.72,17.72,0,0,0,0,15.23,12.62,12.62,0,0,0,4.63,5.08,11.63,11.63,0,0,0,12.4,0Z"/><path class="cls-2" d="M886.61,621.41a15.71,15.71,0,0,1-5.82-7.36l5.68-2.54a11.45,11.45,0,0,0,4.21,5.31,10.92,10.92,0,0,0,6.17,1.86,12.13,12.13,0,0,0,6.12-1.45,4.57,4.57,0,0,0,2.54-4.15,4.51,4.51,0,0,0-2-3.84,18.5,18.5,0,0,0-6.35-2.5l-4.63-1.2a16.68,16.68,0,0,1-7.46-3.81,9.59,9.59,0,0,1-.94-12.73,12.61,12.61,0,0,1,5.27-3.84,18.46,18.46,0,0,1,7.09-1.35A18.11,18.11,0,0,1,905.4,586a12.26,12.26,0,0,1,5.56,6l-5.53,2.53q-2.53-5.07-9-5.07a10.23,10.23,0,0,0-5.49,1.45,4.28,4.28,0,0,0-2.35,3.7,4.13,4.13,0,0,0,1.64,3.4,13,13,0,0,0,4.93,2.12l5.52,1.42a18.22,18.22,0,0,1,8.44,4.22,9.26,9.26,0,0,1,2.84,6.83,9.87,9.87,0,0,1-2,6.17,12.79,12.79,0,0,1-5.45,4.06,19.69,19.69,0,0,1-7.61,1.42A17.47,17.47,0,0,1,886.61,621.41Z"/><path class="cls-3" d="M423.86,411.38l47.21-27.25a23.23,23.23,0,1,0-23.23-40.23L366.27,391Z"/><path class="cls-4" d="M459.43,481.43a23.23,23.23,0,0,0,11.64-43.35L389.5,391a23.23,23.23,0,1,0-23.23,40.23l81.57,47.09A23.15,23.15,0,0,0,459.43,481.43Z"/><path class="cls-5" d="M540.57,481.43a23.15,23.15,0,0,0,11.59-3.12l81.57-47.09-56.86-20.81-47.94,27.67a23.23,23.23,0,0,0,11.64,43.35Z"/><path class="cls-6" d="M622.09,434.34A23.23,23.23,0,0,0,633.73,391L552.16,343.9a23.23,23.23,0,0,0-23.23,40.23l81.57,47.09A23.15,23.15,0,0,0,622.09,434.34Z"/></g></svg>